<svg class="svg-icon" style="width: 1em;height: 1em;vertical-align: middle;fill: currentColor;overflow: hidden;" viewBox="0 0 1024 1024" version="1.1" xmlns="http://www.w3.org/2000/svg"><path d="M704.597333 128c147.029333 0 233.898667 84.437333 233.898667 227.754667v1.578666h-180.650667c-84.053333 0.170667-152.192 66.56-152.32 148.565334-0.170667 82.133333 68.053333 148.864 152.32 148.949333H938.666667v13.056C938.666667 811.264 851.797333 896 704.725333 896H319.317333C172.202667 896 85.333333 811.264 85.333333 667.904V355.754667C85.333333 212.394667 172.202667 128 319.317333 128z m-176.213333 165.333333H287.573333a32.256 32.256 0 0 0-32.512 31.744 32.256 32.256 0 0 0 32.512 31.914667h241.066667a32.256 32.256 0 0 0 32.512-32 32.298667 32.298667 0 0 0-32.810667-31.658667z" fill="#ac94f7" /><path d="M684.245333 524.672c8.96 40.533333 44.501333 69.12 85.162667 68.394667h138.666667a30.976 30.976 0 0 0 30.592-31.317334V453.717333a31.061333 31.061333 0 0 0-30.592-31.317333h-141.952c-46.208 0.128-83.541333 38.485333-83.456 85.76 0 5.546667 0.554667 11.093333 1.578666 16.512" fill="#200E32" opacity=".4" /><path d="M768 507.733333m-42.666667 0a42.666667 42.666667 0 1 0 85.333334 0 42.666667 42.666667 0 1 0-85.333334 0Z" fill="#200E32" /></svg>